<svg width="24" height="24" viewBox="0 0 24 24" fill="none" xmlns="http://www.w3.org/2000/svg">
<path d="M20.0216 24H3.97837C1.78116 24 0 22.2188 0 20.0216V3.97837C0 1.78116 1.78116 0 3.97837 0H20.0216C22.2188 0 24 1.78116 24 3.97837V20.0216C24 22.2188 22.2188 24 20.0216 24Z" fill="#00AEEF"/>
<path d="M12.2827 10.105C11.0341 10.105 9.94751 10.8073 9.40029 11.8385C8.85288 10.8073 7.76688 10.105 6.51738 10.105C5.7837 10.105 5.10588 10.3477 4.55895 10.7576V8.00852C4.55248 7.6533 4.26279 7.36896 3.90635 7.36896C3.54991 7.36896 3.26304 7.6533 3.25488 8.00852V13.4218H3.25554C3.28432 15.1992 4.73276 16.6311 6.51738 16.6311C7.76688 16.6311 8.85288 15.9281 9.40029 14.8979C9.94751 15.9281 11.0341 16.6311 12.2827 16.6311C14.0842 16.6311 15.5456 15.1703 15.5456 13.3674C15.5456 11.5654 14.0842 10.105 12.2827 10.105ZM6.51738 15.3247C5.43635 15.3247 4.55895 14.449 4.55895 13.3678C4.55895 12.2871 5.43635 11.4113 6.51738 11.4113C7.59832 11.4113 8.47385 12.2871 8.47385 13.3674C8.47385 14.4487 7.59832 15.3247 6.51738 15.3247ZM12.2827 15.3247C11.2014 15.3247 10.3247 14.4487 10.3247 13.3674C10.3247 12.2871 11.2014 11.4113 12.2827 11.4113C13.3636 11.4113 14.2399 12.2871 14.2399 13.3674C14.2399 14.4487 13.3636 15.3247 12.2827 15.3247Z" fill="white"/>
<path d="M20.6087 15.5386L18.8352 13.3631L20.6109 11.1834C20.8354 10.8959 20.771 10.4944 20.4611 10.2811C20.1508 10.0659 19.7154 10.121 19.4753 10.4V10.3997L17.9475 12.272L16.4212 10.3997V10.4C16.1835 10.121 15.7454 10.0659 15.4361 10.2811C15.1267 10.4945 15.062 10.8959 15.2877 11.1834H15.287L17.0596 13.3631L15.287 15.5386H15.2877C15.062 15.827 15.1267 16.2273 15.4361 16.4415C15.7454 16.6557 16.1835 16.6011 16.4212 16.3218L17.9475 14.452L19.4731 16.3218C19.7135 16.6011 20.1487 16.6557 20.459 16.4415C20.769 16.2273 20.8337 15.827 20.6087 15.5386Z" fill="white"/>
</svg>
