<svg width="24" height="24" viewBox="0 0 24 24" fill="none" xmlns="http://www.w3.org/2000/svg">
<path d="M8 24C10.208 24 12 22.208 12 20V16H8C5.792 16 4 17.792 4 20C4 22.208 5.792 24 8 24Z" fill="#5FD084"/>
<path d="M4 12C4 9.792 5.792 8 8 8H12V16H8C5.792 16 4 14.208 4 12Z" fill="#A257F7"/>
<path d="M3 4C3 1.792 5.016 0 7.5 0H12V8H7.5C5.016 8 3 6.208 3 4Z" fill="#EE4E34"/>
<path d="M12 6.10352e-05H16C18.208 6.10352e-05 20 1.79206 20 4.00006C20 6.20806 18.208 8.00006 16 8.00006H12V6.10352e-05Z" fill="#EF7060"/>
<path d="M20 12C20 14.208 18.208 16 16 16C13.792 16 12 14.208 12 12C12 9.792 13.792 8 16 8C18.208 8 20 9.792 20 12Z" fill="#49BCF8"/>
</svg>
