<svg width="24" height="24" viewBox="0 0 24 24" fill="none" xmlns="http://www.w3.org/2000/svg">
<path d="M3.14216 9.91998C1.49892 9.91941 0.166348 11.251 0.165772 12.8942C0.165157 14.5374 1.49681 15.87 3.14002 15.8706C4.78324 15.8712 6.11581 14.5396 6.11641 12.8964C6.11639 11.2534 4.7851 9.92117 3.14216 9.91998ZM3.14216 14.3835C2.32024 14.3835 1.65396 13.7172 1.65396 12.8953C1.65396 12.0734 2.32024 11.4071 3.14216 11.4071C3.96405 11.4071 4.63035 12.0734 4.63035 12.8953C4.63035 12.8957 4.63035 12.896 4.63035 12.8964C4.62975 13.7179 3.96367 14.3835 3.14216 14.3835Z" fill="#0A7EC2"/>
<path d="M8.37118 13.8938C8.36953 13.7503 8.48446 13.6326 8.62798 13.631C8.69946 13.6301 8.7682 13.6588 8.81785 13.7102C9.55983 14.4693 10.7903 15.7675 10.7978 15.775C10.8246 15.8096 10.8626 15.8339 10.9052 15.8437C10.9467 15.8535 10.9893 15.8578 11.0318 15.8566H12.374C12.5181 15.8533 12.6321 15.7338 12.6288 15.5897C12.6275 15.5343 12.6086 15.4808 12.5748 15.4368L10.3533 13.1573L10.2374 13.0359C9.9818 12.7277 10.0119 12.615 10.3039 12.309L12.0712 10.3377C12.1625 10.2239 12.1444 10.0576 12.0307 9.96634C11.9837 9.92863 11.9253 9.90811 11.8651 9.90815H10.6454C10.606 9.90828 10.5669 9.91445 10.5294 9.92646C10.4837 9.93873 10.4427 9.9641 10.4113 9.99944L8.82862 11.711C8.72772 11.8171 8.55982 11.8214 8.45366 11.7205C8.40186 11.6712 8.37214 11.6031 8.3712 11.5317V8.14829C8.3726 8.0143 8.26503 7.90453 8.13105 7.90317C8.12586 7.90313 8.1208 7.90321 8.11563 7.90349H7.11818C6.98733 7.89637 6.87543 7.99667 6.86833 8.12752C6.86814 8.13084 6.868 8.13422 6.86796 8.13754V15.6268C6.86551 15.7519 6.96494 15.8553 7.09003 15.8577C7.09942 15.858 7.10881 15.8576 7.11816 15.8566H8.1135C8.24886 15.8586 8.36208 15.7543 8.37118 15.6193V13.8938Z" fill="#0A7EC2"/>
<path d="M16.4864 15.5882L16.379 14.5918C16.3649 14.4609 16.2473 14.3663 16.1164 14.3804C16.1116 14.3809 16.1068 14.3816 16.102 14.3824C15.2901 14.5106 14.5281 13.9562 14.4 13.1444C14.3921 13.0942 14.3868 13.0437 14.384 12.993C14.384 12.9665 14.384 12.9397 14.384 12.9125V11.6981C14.3804 11.5428 14.5035 11.4139 14.6588 11.4104C14.6606 11.4104 14.6624 11.4103 14.6642 11.4103H16.0021C16.1391 11.4057 16.2463 11.2909 16.2416 11.154C16.2416 11.1536 16.2416 11.1531 16.2416 11.1527V10.211C16.2534 10.0722 16.1515 9.94971 16.0129 9.93608H14.6718C14.5212 9.94086 14.3954 9.82268 14.3906 9.67211C14.3905 9.66993 14.3904 9.66772 14.3904 9.66551V8.15475C14.3888 8.02016 14.2785 7.91231 14.1439 7.91387C14.1402 7.91389 14.1364 7.91402 14.1327 7.91425H13.1427C13.0161 7.90653 12.9071 8.00294 12.8993 8.12958C12.899 8.13582 12.8988 8.1421 12.899 8.14832C12.899 8.14832 12.899 12.9683 12.899 12.9951C12.9435 14.6384 14.3117 15.9344 15.9549 15.8899C16.0612 15.887 16.1673 15.8784 16.2727 15.8642C16.4067 15.8463 16.502 15.7248 16.4874 15.5904" fill="#0A7EC2"/>
<path d="M23.6512 14.3384C22.8083 14.3384 22.6848 14.0388 22.6848 12.9049C22.6848 12.9049 22.6848 12.8974 22.6848 12.8942V10.1766C22.6854 10.0349 22.571 9.91949 22.4292 9.91891C22.4286 9.91891 22.4278 9.91891 22.4271 9.91891H21.435C21.2931 9.92062 21.1785 10.0348 21.1762 10.1766V10.3054C19.7463 9.49452 17.9298 9.99625 17.1189 11.4262C16.308 12.856 16.8097 14.6725 18.2395 15.4834C19.3295 16.1015 20.6898 15.971 21.6422 15.1565C21.9224 15.5861 22.3713 15.8652 23.0724 15.8706C23.1927 15.8706 23.824 15.8921 23.824 15.5947V14.537C23.8285 14.4359 23.753 14.3491 23.6522 14.3395L23.6512 14.3384ZM19.7062 14.3835C18.8844 14.3835 18.218 13.7172 18.218 12.8953C18.218 12.0734 18.8844 11.4071 19.7062 11.4071C20.5282 11.4071 21.1945 12.0734 21.1945 12.8953C21.1945 13.7172 20.5281 14.3835 19.7062 14.3835Z" fill="#0A7EC2"/>
</svg>
